# xmcd
#
# Track frame offsets: 
#        150
#        10777
#        23507
#        34697
#        46050
#        56670
#        69292
#        83147
#        94477
#        106437
#        119905
#        131425
#        144705
#        156235
#        168717
#
# Disc length: 2414 seconds
#
# Revision: 3
# Processed by: cddbd v1.5.2PL0 Copyright (c) Steve Scherf et al.
# Submitted via: ExactAudioCopy v0.99pb5
#
DISCID=ca096c0f
DTITLE=Various Artist - Classic Country - TL 626-11 - '50s Legends - CD 1
DYEAR=2000
DGENRE=country
TTITLE0=Slim Whitman - Rose Marie
TTITLE1=Jim Reeves - Bimbo
TTITLE2=Hank Locklin - Send me the pillow you dream on
TTITLE3=Marty Robbins - A white sport coat (and a pink carnation)
TTITLE4=Everly Brothers - All I have to do is dream
TTITLE5=George Jones - White lightning
TTITLE6=Johnny Cash - Don't take your guns to town
TTITLE7=Billy Grammer - Gotta travel on
TTITLE8=Browns feat. Jim Ed Brown - Scarlet ribbons (for her hair)
TTITLE9=Ray Price - Heartaches by the number
TTITLE10=Jean Shepard and Ferlin Husky - A dear John letter
TTITLE11=Lefty Frizzell - If you've got the money I've got the time
TTITLE12=Webb Pierce - Slowly
TTITLE13=Skeets McDonald - Don't let the stars get in your eyes
TTITLE14=Hank Williams - Cold, cold heart
EXTD=
EXTT0=
EXTT1=
EXTT2=
EXTT3=
EXTT4=
EXTT5=
EXTT6=
EXTT7=
EXTT8=
EXTT9=
EXTT10=
EXTT11=
EXTT12=
EXTT13=
EXTT14=
PLAYORDER=
